REM DIRINDEX 1\2,1\3,1\4,1\5
REM DIRNAME "folder01","folder02","folder03","folder04","folder05"
TITLE ""
FILE "1Q_t_1139-1148.mp3" MP3
  TRACK 01 AUDIO
    TITLE "3:cjc172_4382"
    INDEX 01 00:00:00
  TRACK 02 AUDIO
    TITLE "0:"
    INDEX 01 00:01:33
  TRACK 03 AUDIO
    TITLE "4:cjc172_4383"
    INDEX 01 00:01:41
  TRACK 04 AUDIO
    TITLE "0:"
    INDEX 01 00:03:48
  TRACK 05 AUDIO
    TITLE "5:cjc172_4384"
    INDEX 01 00:03:54
  TRACK 06 AUDIO
    TITLE "0:"
    INDEX 01 00:09:46
  TRACK 07 AUDIO
    TITLE "3:cjc172_4385"
    INDEX 01 00:10:19
  TRACK 08 AUDIO
    TITLE "0:"
    INDEX 01 00:11:32
  TRACK 09 AUDIO
    TITLE "4:cjc172_4386"
    INDEX 01 00:11:39
  TRACK 10 AUDIO
    TITLE "0:"
    INDEX 01 00:14:34
  TRACK 11 AUDIO
    TITLE "5:cjc172_4387"
    INDEX 01 00:14:42
  TRACK 12 AUDIO
    TITLE "0:"
    INDEX 01 00:21:46
  TRACK 13 AUDIO
    TITLE "3:cjc172_4388"
    INDEX 01 00:22:18
  TRACK 14 AUDIO
    TITLE "0:"
    INDEX 01 00:23:21
  TRACK 15 AUDIO
    TITLE "4:cjc172_4389"
    INDEX 01 00:23:29
  TRACK 16 AUDIO
    TITLE "0:"
    INDEX 01 00:25:55
  TRACK 17 AUDIO
    TITLE "5:cjc172_4390"
    INDEX 01 00:25:63
  TRACK 18 AUDIO
    TITLE "0:"
    INDEX 01 00:31:07
  TRACK 19 AUDIO
    TITLE "3:cjc172_4391"
    INDEX 01 00:31:52
  TRACK 20 AUDIO
    TITLE "0:"
    INDEX 01 00:32:44
  TRACK 21 AUDIO
    TITLE "4:cjc172_4392"
    INDEX 01 00:32:55
  TRACK 22 AUDIO
    TITLE "0:"
    INDEX 01 00:35:44
  TRACK 23 AUDIO
    TITLE "5:cjc172_4393"
    INDEX 01 00:35:50
  TRACK 24 AUDIO
    TITLE "0:"
    INDEX 01 00:39:57
  TRACK 25 AUDIO
    TITLE "3:cjc172_4394"
    INDEX 01 00:40:27
  TRACK 26 AUDIO
    TITLE "0:"
    INDEX 01 00:41:39
  TRACK 27 AUDIO
    TITLE "4:cjc172_4395"
    INDEX 01 00:41:46
  TRACK 28 AUDIO
    TITLE "0:"
    INDEX 01 00:45:03
  TRACK 29 AUDIO
    TITLE "5:cjc172_4396"
    INDEX 01 00:45:11
  TRACK 30 AUDIO
    TITLE "0:"
    INDEX 01 00:50:10
  TRACK 31 AUDIO
    TITLE "3:cjc172_4397"
    INDEX 01 00:50:57
  TRACK 32 AUDIO
    TITLE "0:"
    INDEX 01 00:52:07
  TRACK 33 AUDIO
    TITLE "4:cjc172_4398"
    INDEX 01 00:52:15
  TRACK 34 AUDIO
    TITLE "0:"
    INDEX 01 00:55:27
  TRACK 35 AUDIO
    TITLE "5:cjc172_4399"
    INDEX 01 00:55:35
  TRACK 36 AUDIO
    TITLE "0:"
    INDEX 01 01:01:61
  TRACK 37 AUDIO
    TITLE "3:cjc172_4400"
    INDEX 01 01:02:33
  TRACK 38 AUDIO
    TITLE "0:"
    INDEX 01 01:03:38
  TRACK 39 AUDIO
    TITLE "4:cjc172_4401"
    INDEX 01 01:03:46
  TRACK 40 AUDIO
    TITLE "0:"
    INDEX 01 01:06:07
  TRACK 41 AUDIO
    TITLE "5:cjc172_4402"
    INDEX 01 01:06:13
  TRACK 42 AUDIO
    TITLE "0:"
    INDEX 01 01:12:22
  TRACK 43 AUDIO
    TITLE "3:cjc172_4403"
    INDEX 01 01:12:67
  TRACK 44 AUDIO
    TITLE "0:"
    INDEX 01 01:14:03
  TRACK 45 AUDIO
    TITLE "4:cjc172_4404"
    INDEX 01 01:14:11
  TRACK 46 AUDIO
    TITLE "0:"
    INDEX 01 01:15:69
  TRACK 47 AUDIO
    TITLE "5:cjc172_4405"
    INDEX 01 01:16:00
  TRACK 48 AUDIO
    TITLE "0:"
    INDEX 01 01:22:32
  TRACK 49 AUDIO
    TITLE "3:cjc172_4406"
    INDEX 01 01:23:02
  TRACK 50 AUDIO
    TITLE "0:"
    INDEX 01 01:24:17
  TRACK 51 AUDIO
    TITLE "4:cjc172_4407"
    INDEX 01 01:24:25
  TRACK 52 AUDIO
    TITLE "0:"
    INDEX 01 01:26:35
  TRACK 53 AUDIO
    TITLE "5:cjc172_4408"
    INDEX 01 01:26:41
  TRACK 54 AUDIO
    TITLE "0:"
    INDEX 01 01:33:47
  TRACK 55 AUDIO
    TITLE "3:cjc172_4409"
    INDEX 01 01:34:17
  TRACK 56 AUDIO
    TITLE "0:"
    INDEX 01 01:35:34
  TRACK 57 AUDIO
    TITLE "4:cjc172_4410"
    INDEX 01 01:35:42
  TRACK 58 AUDIO
    TITLE "0:"
    INDEX 01 01:37:45
  TRACK 59 AUDIO
    TITLE "5:cjc172_4411"
    INDEX 01 01:37:53
  TRACK 60 AUDIO
    TITLE "0:"
    INDEX 01 01:44:12
